<?xml version="1.0" encoding="UTF-8"?>
<svg id="Capa_2" data-name="Capa 2" xmlns="http://www.w3.org/2000/svg" viewBox="0 0 79.15 79.98">
  <defs>
    <style>
      .cls-1 {
        fill: #fff;
      }
    </style>
  </defs>
  <g id="Capa_1-2" data-name="Capa 1">
    <g>
      <path d="M18.49.9C25.57-.3,53.93-.3,61.01.9c25.48,4.3,16.23,37.09,17.55,55.07l-26.52,23.48c-17.58-.3-49.07,6.16-51.34-19.26C-.11,51.05-.46,25.92.99,17.4,2.32,9.55,10.75,2.2,18.49.9ZM73.75,51.66V19.16c0-3.58-7.29-10.69-11.01-11.99-7.03-2.46-38.01-2.45-45.21-.22-5.02,1.55-9.53,5.97-11.01,10.99s-1.65,36.19-.72,42.16c2.9,18.55,28.51,14.65,42,14.12,2.61-1.82-1.65-13.91,4.41-19.59.54-.51,4.73-2.97,5.03-2.97h16.5ZM68.75,56.67c-11.43-1.37-16.57,1.99-14.99,13.99l14.99-13.99Z"/>
      <path class="cls-1" d="M73.75,51.66h-16.5c-.29,0-4.49,2.47-5.03,2.97-6.06,5.68-1.81,17.77-4.41,19.59-13.49.53-39.1,4.43-42-14.12-.93-5.97-.79-37.04.72-42.16s5.99-9.44,11.01-10.99c7.19-2.23,38.18-2.24,45.21.22,3.72,1.3,11.01,8.42,11.01,11.99v32.5ZM22.49,17.83c-7.78,1.58-5.19,13.84-.68,10.38l2.45-5.53c1.74,0,.79,7.31,4.99,5.97,3.33-1.06,2.56-12.71-6.75-10.82ZM53.49,17.83c-7.78,1.58-5.19,13.84-.68,10.38l2.45-5.53c1.85,0,.63,8.02,5.51,5.5,4.59-2.37.22-11.86-7.28-10.35ZM51.75,34.66h-24c-6.28,25.85,30.28,25.85,24,0Z"/>
      <path class="cls-1" d="M68.75,56.67l-14.99,13.99c-1.58-12,3.56-15.36,14.99-13.99Z"/>
      <path d="M51.75,34.66c6.28,25.85-30.28,25.85-24,0h24ZM46.75,39.66h-14c-.76,12.14,14.83,11.99,14,0Z"/>
      <path d="M53.49,17.83c7.49-1.52,11.87,7.98,7.28,10.35-4.88,2.52-3.66-5.5-5.51-5.5l-2.45,5.53c-4.51,3.47-7.09-8.8.68-10.38Z"/>
      <path d="M22.49,17.83c9.32-1.89,10.09,9.76,6.75,10.82-4.21,1.34-3.25-5.98-4.99-5.97l-2.45,5.53c-4.51,3.46-7.09-8.8.68-10.38Z"/>
      <path class="cls-1" d="M46.75,39.66c.83,11.99-14.76,12.14-14,0h14Z"/>
    </g>
  </g>
</svg>